<svg xmlns="http://www.w3.org/2000/svg" width="366" height="329" viewBox="0 0 366 329">
<g>
<path d="M -0.00 225.25 L -0.00 121.49 L 43.25 78.25 L 86.51 35.00 L 110.25 35.00 L 134.00 35.00 L 134.00 17.47 L 134.00 -0.07 L 188.25 0.22 C242.39,0.50 242.51,0.50 247.50,2.79 C251.54,4.65 263.36,15.93 309.25,61.78 L 366.00 118.48 L 366.00 223.74 L 366.00 329.00 L 275.24 329.00 L 184.49 329.00 L 152.74 297.24 L 121.00 265.49 L 121.00 204.65 L 121.00 143.80 L 134.25 144.18 C145.11,144.49 148.34,144.94 152.18,146.69 C158.76,149.69 165.49,156.26 168.69,162.79 C171.14,167.80 171.47,169.80 172.00,182.50 C172.53,195.20 172.86,197.20 175.31,202.21 C178.52,208.76 185.26,215.32 191.82,218.29 C195.37,219.90 199.09,220.51 207.25,220.81 L 218.00 221.22 L 218.00 171.86 L 218.00 122.49 L 175.50 80.00 L 133.00 37.51 L 89.00 81.50 L 45.00 125.49 L 45.00 183.49 L 45.00 241.49 L 88.75 285.25 L 132.49 329.00 L 66.25 329.00 L 0.00 329.00 L -0.00 225.25 ZM 335.00 201.50 L 335.00 178.00 L 302.00 178.00 L 269.00 178.00 L 269.00 201.50 L 269.00 225.00 L 302.00 225.00 L 335.00 225.00 L 335.00 201.50 Z" fill="#ffffff"/>
</g>
</svg>